<svg width="27" height="48" viewBox="0 0 27 48" fill="none" xmlns="http://www.w3.org/2000/svg">
<path d="M24.3672 47.7344C24.1363 47.7345 23.9077 47.6891 23.6943 47.6008C23.481 47.5126 23.2872 47.3831 23.1238 47.2199L1.45705 25.552C1.12751 25.2223 0.942383 24.7753 0.942383 24.3092C0.942383 23.8431 1.12751 23.3961 1.45705 23.0664L23.1238 1.39844C23.287 1.23516 23.4808 1.10563 23.6941 1.01723C23.9073 0.928834 24.1359 0.883309 24.3668 0.883255C24.5976 0.883201 24.8263 0.928618 25.0396 1.01691C25.2529 1.10521 25.4467 1.23465 25.61 1.39786C25.7733 1.56106 25.9028 1.75483 25.9912 1.96809C26.0796 2.18136 26.1251 2.40994 26.1252 2.6408C26.1252 2.87166 26.0798 3.10027 25.9915 3.31358C25.9032 3.52688 25.7738 3.72071 25.6106 3.88399L5.18595 24.3086L25.6106 44.7332C25.8566 44.979 26.0241 45.2923 26.092 45.6334C26.1599 45.9745 26.1251 46.3281 25.992 46.6494C25.8589 46.9707 25.6334 47.2452 25.3442 47.4384C25.055 47.6315 24.715 47.7345 24.3672 47.7344Z" fill="white"/>
</svg>
