<svg width="30" height="30" viewBox="0 0 30 30" fill="none" xmlns="http://www.w3.org/2000/svg">
<path d="M25.625 8C24.75 6.875 23.5 6.25 22.125 6.25H7.75L7.5 4.75C7.375 4.25 6.875 3.75 6.25 3.75H3.75C3 3.75 2.5 4.25 2.5 5C2.5 5.75 3 6.25 3.75 6.25H5.25L5.5 7.75L7 16.5L7.25 18C7.5 19.875 9.125 21.25 11 21.25H23C23.75 21.25 24.25 20.75 24.25 20C24.25 19.25 23.75 18.75 23 18.75H11C10.375 18.75 9.75 18.25 9.625 17.625V17.5H21.375C23.375 17.5 25 16.25 25.625 14.375L26.375 11.875C26.75 10.5 26.375 9.125 25.625 8ZM23.875 11.125L23.125 13.625C22.875 14.375 22.125 15 21.375 15H9.125L8.125 8.75H22.125C22.75 8.75 23.25 9 23.625 9.5C24 10 24.125 10.625 23.875 11.125Z" fill="white"/>
<path d="M10.625 26.25C11.6605 26.25 12.5 25.4105 12.5 24.375C12.5 23.3395 11.6605 22.5 10.625 22.5C9.58947 22.5 8.75 23.3395 8.75 24.375C8.75 25.4105 9.58947 26.25 10.625 26.25Z" fill="white"/>
<path d="M20.625 26.25C21.6605 26.25 22.5 25.4105 22.5 24.375C22.5 23.3395 21.6605 22.5 20.625 22.5C19.5895 22.5 18.75 23.3395 18.75 24.375C18.75 25.4105 19.5895 26.25 20.625 26.25Z" fill="white"/>
</svg>
