<svg width="64" height="64" viewBox="0 0 64 64" fill="none" xmlns="http://www.w3.org/2000/svg">
<path d="M52.71 42.72H36.9C35.9307 42.7198 34.9764 42.9588 34.1217 43.4159C33.2669 43.8729 32.5381 44.5338 32 45.34C31.4619 44.5338 30.7331 43.8729 29.8784 43.4159C29.0236 42.9588 28.0693 42.7198 27.1 42.72H11.29C10.154 42.72 9.06431 43.1706 8.26006 43.973C7.45582 44.7753 7.00267 45.864 7.00002 47V54.57C6.9987 54.8886 7.06033 55.2044 7.18135 55.4992C7.30238 55.7939 7.48043 56.0619 7.70528 56.2877C7.93013 56.5134 8.19735 56.6926 8.49161 56.8148C8.78587 56.9371 9.10138 57 9.42002 57H54.58C55.2218 57 55.8374 56.745 56.2912 56.2912C56.7451 55.8374 57 55.2218 57 54.58V47C56.9974 45.864 56.5442 44.7753 55.74 43.973C54.9357 43.1706 53.8461 42.72 52.71 42.72ZM36.9 44.72H52.71C53.3148 44.7226 53.8943 44.9633 54.3229 45.3901C54.7515 45.8168 54.9948 46.3952 55 47V47.6H39.48C39.2148 47.6 38.9604 47.7054 38.7729 47.8929C38.5854 48.0804 38.48 48.3348 38.48 48.6C38.48 48.8652 38.5854 49.1196 38.7729 49.3071C38.9604 49.4946 39.2148 49.6 39.48 49.6H55V51.08H33V48.62C33.0027 47.5865 33.4144 46.596 34.1452 45.8652C34.876 45.1344 35.8665 44.7226 36.9 44.72ZM11.29 44.72H27.1C28.1336 44.7226 29.124 45.1344 29.8548 45.8652C30.5856 46.596 30.9974 47.5865 31 48.62V51.09H9.00002V49.61H24.52C24.7852 49.61 25.0396 49.5046 25.2271 49.3171C25.4147 49.1296 25.52 48.8752 25.52 48.61C25.52 48.3448 25.4147 48.0904 25.2271 47.9029C25.0396 47.7154 24.7852 47.61 24.52 47.61H9.00002V47C9.00267 46.3944 9.2451 45.8145 9.67427 45.3872C10.1034 44.9599 10.6844 44.72 11.29 44.72ZM9.00002 54.58V53.09H31V55H9.42002C9.36487 55 9.31025 54.9891 9.25929 54.968C9.20834 54.9469 9.16204 54.916 9.12304 54.877C9.08404 54.838 9.0531 54.7917 9.03199 54.7407C9.01088 54.6898 9.00002 54.6352 9.00002 54.58ZM55 54.58C55 54.6352 54.9892 54.6898 54.968 54.7407C54.9469 54.7917 54.916 54.838 54.877 54.877C54.838 54.916 54.7917 54.9469 54.7407 54.968C54.6898 54.9891 54.6352 55 54.58 55H33V53.09H55V54.58Z" fill="black"/>
<path d="M20.38 25.17C20.1386 25.1013 19.8801 25.1258 19.656 25.2388C19.4318 25.3518 19.2584 25.545 19.17 25.78C18.6082 27.3901 18.4493 29.1134 18.7073 30.7991C18.9653 32.4848 19.6323 34.0816 20.65 35.45C21.9022 37.2891 23.5999 38.7811 25.5846 39.7866C27.5694 40.7921 29.7765 41.2783 32 41.2C37.91 41.2 44.4201 38.2 45.2401 32.37C46.4901 23.59 42.0501 21.54 41.8601 21.46C41.6706 21.3793 41.4609 21.359 41.2594 21.4019C41.058 21.4448 40.8748 21.5489 40.7347 21.6999C40.5947 21.8509 40.5047 22.0414 40.477 22.2455C40.4493 22.4495 40.4853 22.6572 40.5801 22.84C41.0105 23.6878 41.1 24.6683 40.8301 25.58C40.6779 25.9129 40.4439 26.2018 40.1501 26.42C40.0801 23.9 38.1501 21.04 34.6501 18.16C31.9401 15.95 34.5001 12.21 34.6501 12.05C34.7662 11.8826 34.8284 11.6837 34.8284 11.48C34.8284 11.2763 34.7662 11.0774 34.6501 10.91C34.5346 10.744 34.3714 10.6168 34.1822 10.5454C33.9929 10.474 33.7865 10.4617 33.59 10.51C29.47 11.51 22.13 15.6 23.81 23.65C24.41 26.57 24.0201 28.02 23.4501 28.41C23.2282 28.5028 22.9851 28.5333 22.7472 28.498C22.5093 28.4628 22.2855 28.3632 22.1001 28.21C21.7748 28.0234 21.5086 27.7491 21.3318 27.4185C21.155 27.0878 21.0747 26.7141 21.1001 26.34C21.1522 26.0899 21.1066 25.8294 20.9728 25.6118C20.8389 25.3942 20.6268 25.2362 20.38 25.17ZM35.2001 37.84C34.9801 38.57 34.2 39.01 32.91 39.15C32.51 39.15 32.09 39.15 31.65 39.15C30.65 39.15 29.44 38.93 28.98 38.23C28.2 37.05 29.36 34.31 30.21 32.31C30.52 31.59 30.8 30.93 31.0201 30.31C33.4901 32.46 35.7401 36 35.2001 37.84ZM24.5 30.07C25.5 29.36 26.6 27.61 25.6901 23.24C24.5001 17.47 28.93 14.52 31.7801 13.24C31.3185 14.3443 31.2229 15.5674 31.5073 16.73C31.7916 17.8925 32.4409 18.9334 33.3601 19.7C37.0501 22.7 38.7501 25.7 37.9001 27.7C37.8259 27.8727 37.8018 28.0628 37.8308 28.2486C37.8597 28.4343 37.9403 28.6081 38.0635 28.7501C38.1867 28.8921 38.3474 28.9964 38.5272 29.0513C38.707 29.1061 38.8986 29.1091 39.0801 29.06C39.8394 28.9165 40.5552 28.5989 41.1711 28.1321C41.7871 27.6654 42.2865 27.0622 42.6301 26.37C42.7273 26.1518 42.801 25.9238 42.85 25.69C43.5116 27.7543 43.6423 29.9519 43.23 32.08C42.88 34.57 40.8701 37.08 37.1301 38.33C38.0701 34.94 34.13 29.85 30.97 27.81C30.8254 27.7163 30.659 27.6615 30.487 27.651C30.315 27.6405 30.1432 27.6746 29.9882 27.7501C29.8333 27.8255 29.7005 27.9398 29.6027 28.0817C29.5049 28.2236 29.4454 28.3883 29.43 28.56C29.198 29.5988 28.8422 30.606 28.3701 31.56C27.4401 33.75 26.37 36.18 26.81 38.13C24.9921 37.2831 23.4346 35.9639 22.3 34.31C21.3182 32.9283 20.7242 31.3089 20.58 29.62L20.92 29.87C21.428 30.2583 22.0409 30.4849 22.6793 30.5206C23.3177 30.5563 23.952 30.3993 24.5 30.07Z" fill="black"/>
<path d="M9.06 13.13C7.82 13.76 7 14.13 7 15.08C7 16.03 7.82 16.4 9.06 17C10.8153 17.8936 12.2407 19.3225 13.13 21.08C13.76 22.31 14.13 23.08 15.08 23.08C16.03 23.08 16.4 22.26 17.02 21.08C17.9102 19.3198 19.3398 17.8902 21.1 17C22.33 16.38 23.1 16 23.1 15.06C23.1 14.12 22.28 13.74 21.1 13.11C19.3361 12.2322 17.8994 10.813 17 9.06C16.4 7.82 16 7 15.08 7C14.16 7 13.76 7.82 13.13 9.06C12.2401 10.8146 10.8146 12.2401 9.06 13.13ZM14.92 10C14.92 9.91 15.02 9.8 15.08 9.69L15.23 10C16.3154 12.1612 18.0688 13.9146 20.23 15L20.54 15.16L20.23 15.31C18.0722 16.4 16.32 18.1522 15.23 20.31C15.23 20.4 15.13 20.5 15.08 20.62C15.02 20.5 14.96 20.4 14.92 20.31C13.8283 18.1534 12.0766 16.4017 9.92 15.31L9.6 15.16L9.92 15C12.0799 13.9129 13.8329 12.1599 14.92 10Z" fill="black"/>
<path d="M55.33 18.11C54.0747 17.4749 53.0551 16.4554 52.42 15.2C51.95 14.27 51.58 13.53 50.75 13.53C49.92 13.53 49.55 14.27 49.08 15.2C48.445 16.4554 47.4254 17.4749 46.17 18.11C45.24 18.58 44.5 18.95 44.5 19.78C44.5 20.61 45.24 20.99 46.17 21.46C47.4247 22.0913 48.4444 23.1075 49.08 24.36C49.55 25.3 49.92 26.03 50.75 26.03C51.58 26.03 51.95 25.3 52.42 24.36C53.0557 23.1075 54.0754 22.0913 55.33 21.46C56.26 21 57 20.62 57 19.78C57 18.94 56.26 18.58 55.33 18.11ZM50.75 23.25C49.9534 21.7854 48.7524 20.5808 47.29 19.78C48.752 18.9833 49.9533 17.782 50.75 16.32C51.5481 17.7844 52.7533 18.9862 54.22 19.78C52.7526 20.5774 51.5475 21.7826 50.75 23.25Z" fill="black"/>
</svg>
