<svg width="35" height="35" viewBox="0 0 35 35" fill="none" xmlns="http://www.w3.org/2000/svg">
<g clip-path="url(#clip0_11_20)">
<path d="M32.8125 5.10413H2.1875C1.60734 5.10413 1.05094 5.33459 0.640704 5.74483C0.230468 6.15507 0 6.71146 0 7.29163L0 27.7083C0 28.2885 0.230468 28.8449 0.640704 29.2551C1.05094 29.6653 1.60734 29.8958 2.1875 29.8958H32.8125C33.3927 29.8958 33.9491 29.6653 34.3593 29.2551C34.7695 28.8449 35 28.2885 35 27.7083V7.29163C35 6.71146 34.7695 6.15507 34.3593 5.74483C33.9491 5.33459 33.3927 5.10413 32.8125 5.10413ZM32.3458 6.56246L17.5 18.0395L2.65417 6.56246H32.3458ZM1.45833 27.4093V7.48121L12.6948 16.1656L1.45833 27.4093ZM2.48646 28.4375L13.8542 17.0698L17.0479 19.5416C17.1754 19.6398 17.3318 19.693 17.4927 19.693C17.6536 19.693 17.81 19.6398 17.9375 19.5416L21.1458 17.0698L32.5135 28.4375H2.48646ZM33.5417 27.4093L22.3052 16.1656L33.5417 7.48121V27.4093Z" fill="white"/>
</g>
<defs>
<clipPath id="clip0_11_20">
<rect width="35" height="35" fill="white"/>
</clipPath>
</defs>
</svg>
