<svg width="30" height="30" viewBox="0 0 30 30" fill="none" xmlns="http://www.w3.org/2000/svg">
<g clip-path="url(#clip0_1_18)">
<path d="M15.6679 24.832L25.1601 15.3399C27.4922 12.9961 27.832 9.16407 25.6289 6.71485C25.0764 6.09764 24.4038 5.59956 23.6523 5.25104C22.9008 4.90253 22.0861 4.7109 21.258 4.68787C20.4299 4.66484 19.6059 4.81089 18.8361 5.11709C18.0664 5.42329 17.3672 5.88321 16.7812 6.46876L15 8.26173L13.4648 6.71485C11.1211 4.38282 7.28904 4.04298 4.83982 6.2461C4.22261 6.79862 3.72453 7.47119 3.37601 8.2227C3.0275 8.97422 2.83587 9.7889 2.81284 10.617C2.78981 11.445 2.93585 12.2691 3.24206 13.0388C3.54826 13.8086 4.00818 14.5078 4.59373 15.0938L14.332 24.832C14.5098 25.0081 14.7498 25.1068 15 25.1068C15.2501 25.1068 15.4902 25.0081 15.6679 24.832Z" stroke="white" stroke-width="2" stroke-linecap="round" stroke-linejoin="round"/>
</g>
<defs>
<clipPath id="clip0_1_18">
<rect width="30" height="30" fill="white"/>
</clipPath>
</defs>
</svg>
