<svg width="30" height="30" viewBox="0 0 30 30" fill="none" xmlns="http://www.w3.org/2000/svg">
<path d="M15.1 0.300049C9.10001 0.300049 5.10001 4.30005 5.10001 10.1C5.10001 17.9 12.3 27.6 14.2 29.5C14.3 29.6 14.5 29.7001 14.7 29.7001C14.9 29.7001 15.1 29.6 15.2 29.4C16.2 28.3 24.8 18.3 24.8 10.1C24.9 3.30005 20 0.300049 15.1 0.300049ZM14.7 27.8C12.4 25.1 6.60001 16.7 6.60001 10.1C6.60001 5.00005 9.90001 1.80005 15.1 1.80005C18.9 1.80005 23.4 4.00005 23.4 10.1C23.4 16 18.2 23.8 14.7 27.8ZM15 6.10005C12.8 6.10005 11 7.90005 11 10.1C11 12.3 12.8 14.1 15 14.1C17.2 14.1 19 12.3 19 10.1C19 7.90005 17.2 6.10005 15 6.10005ZM15 12.6C13.6 12.6 12.5 11.5 12.5 10.1C12.5 8.70005 13.6 7.60005 15 7.60005C16.4 7.60005 17.5 8.70005 17.5 10.1C17.5 11.5 16.4 12.6 15 12.6Z" fill="white"/>
</svg>
