<svg width="64" height="50" viewBox="0 0 64 50" fill="none" xmlns="http://www.w3.org/2000/svg">
<path d="M62.869 9.84199H62.812C61.716 9.84899 61.546 8.89699 61.527 8.45499V1.54199C61.527 0.803994 60.929 0.205994 60.193 0.205994H40.428C35.469 0.205994 33.619 2.04399 33.16 2.62099L33.034 2.79599L33.033 2.79899L32.642 3.33499C32.117 4.05599 31.659 3.74899 31.439 3.51299L30.691 2.57999L30.321 2.13399C29.699 1.48099 28.078 0.205994 24.865 0.205994H3.80803C3.07003 0.205994 2.47203 0.803994 2.47203 1.54199V8.36699C2.47203 9.56199 1.82303 9.80199 1.42503 9.84199H1.12903C0.805025 9.86199 0.0510254 10.05 0.0510254 11.437V43.966C0.0510254 44.764 0.698025 45.41 1.49603 45.41H20.714C26.845 45.41 29.517 47.722 30.318 48.609L30.775 49.175C30.775 49.175 32.002 50.562 33.294 49.175L33.562 48.861L33.566 48.859L33.908 48.459C33.918 48.447 34 48.355 34.119 48.233C35.142 47.238 37.699 45.41 42.699 45.41H62.504C63.303 45.41 63.949 44.764 63.949 43.966V11.122C63.949 9.94599 63.098 9.84799 62.869 9.84199ZM58.551 38.862C58.551 39.503 58.016 40.02 57.35 40.02H41.055C35.256 40.02 33.151 42.64 33.151 42.64L32.884 42.998L32.759 43.171C32.206 43.922 31.392 43.177 31.388 43.173L31.013 42.704C30.735 42.37 28.605 40.019 23.45 40.019H6.65003C5.98703 40.019 5.45103 39.501 5.45103 38.861V4.19899C5.45103 3.55899 5.98703 3.04099 6.65003 3.04099H19.693C29.395 3.04099 30.314 8.55199 30.377 10.153V34.259C30.377 36.011 31.212 36.34 31.683 36.388H32.384C32.864 36.34 33.627 36.055 33.627 34.688V9.84199H33.619C33.691 7.83699 34.473 3.03999 40.308 3.03999H57.35C58.016 3.03999 58.551 3.55799 58.551 4.19799V38.862Z" fill="white"/>
</svg>
