<svg width="35" height="35" viewBox="0 0 35 35" fill="none" xmlns="http://www.w3.org/2000/svg">
<path d="M23.839 30.7658C22.7696 30.7579 21.7049 30.6236 20.6671 30.3659C17.083 29.5012 13.3923 27.3075 10.2765 24.189C7.16064 21.0704 4.96425 17.379 4.09951 13.7983C3.18896 10.0317 3.83837 6.80927 5.92607 4.72157L6.52216 4.12548C7.06299 3.58573 7.79587 3.28259 8.55996 3.28259C9.32404 3.28259 10.0569 3.58573 10.5977 4.12548L14.0232 7.55028C14.5633 8.09094 14.8667 8.82388 14.8667 9.58808C14.8667 10.3523 14.5633 11.0852 14.0232 11.6259L11.9998 13.6486C12.9698 15.3508 14.2892 17.0543 15.8484 18.6136C17.4077 20.1728 19.1126 21.4929 20.8141 22.4629L22.8368 20.4394C23.1044 20.1718 23.4221 19.9594 23.7717 19.8146C24.1214 19.6697 24.4961 19.5951 24.8746 19.5951C25.2531 19.5951 25.6278 19.6697 25.9775 19.8146C26.3271 19.9594 26.6448 20.1718 26.9124 20.4394L30.3372 23.8642C30.8774 24.4047 31.1809 25.1376 31.1809 25.9017C31.1809 26.6658 30.8774 27.3987 30.3372 27.9392L29.7404 28.5352C28.2686 30.0098 26.2315 30.7658 23.839 30.7658ZM8.55996 5.33202C8.45081 5.33148 8.34265 5.35273 8.24182 5.39451C8.14099 5.4363 8.04951 5.49779 7.97275 5.57538L7.37597 6.17147C5.81259 7.73485 5.35595 10.273 6.09013 13.3143C6.86738 16.5361 8.86826 19.8837 11.7236 22.7384C14.579 25.5931 17.9259 27.5919 21.1483 28.3719C24.1903 29.106 26.7271 28.6494 28.2905 27.086L28.8866 26.4899C29.0424 26.3341 29.1298 26.1227 29.1298 25.9024C29.1298 25.682 29.0424 25.4707 28.8866 25.3148L25.4625 21.89C25.3066 21.7343 25.0953 21.6468 24.8749 21.6468C24.6546 21.6468 24.4433 21.7343 24.2874 21.89L21.7232 24.4542C21.5694 24.6081 21.3705 24.7091 21.1555 24.7426C20.9404 24.776 20.7203 24.7401 20.5269 24.6401C18.4249 23.5532 16.3058 21.9707 14.3985 20.0635C12.4913 18.1562 10.9122 16.0385 9.82255 13.9364C9.72249 13.7432 9.6865 13.5231 9.71981 13.308C9.75311 13.093 9.85398 12.8941 10.0078 12.7401L12.5727 10.176C12.7284 10.0201 12.8159 9.80876 12.8159 9.58842C12.8159 9.36807 12.7284 9.15674 12.5727 9.00087L9.14785 5.57538C9.07084 5.49792 8.97922 5.43653 8.8783 5.39475C8.77738 5.35298 8.66918 5.33166 8.55996 5.33202Z" fill="white"/>
<path d="M24.9341 18.4386C24.6621 18.4386 24.4013 18.3305 24.209 18.1382C24.0167 17.9459 23.9087 17.6851 23.9087 17.4132C23.9067 15.6143 23.1913 13.8897 21.9194 12.6176C20.6474 11.3456 18.9229 10.63 17.124 10.6278C16.8521 10.6278 16.5913 10.5198 16.399 10.3275C16.2067 10.1352 16.0986 9.87437 16.0986 9.60242C16.0986 9.33047 16.2067 9.06965 16.399 8.87736C16.5913 8.68506 16.8521 8.57703 17.124 8.57703C21.996 8.57703 25.9595 12.5419 25.9595 17.4132C25.9595 17.6851 25.8514 17.9459 25.6591 18.1382C25.4668 18.3305 25.206 18.4386 24.9341 18.4386Z" fill="white"/>
<path d="M29.2681 18.4386C28.9961 18.4386 28.7353 18.3305 28.543 18.1382C28.3507 17.9459 28.2427 17.6851 28.2427 17.4132C28.2427 11.282 23.2524 6.29382 17.124 6.29382C16.8521 6.29382 16.5913 6.18579 16.399 5.99349C16.2067 5.8012 16.0986 5.54038 16.0986 5.26843C16.0986 4.99648 16.2067 4.73567 16.399 4.54337C16.5913 4.35107 16.8521 4.24304 17.124 4.24304C24.3858 4.24304 30.2935 10.1513 30.2935 17.4132C30.2935 17.6851 30.1854 17.9459 29.9931 18.1382C29.8008 18.3305 29.54 18.4386 29.2681 18.4386Z" fill="white"/>
</svg>
