<svg width="30" height="30" viewBox="0 0 30 30" fill="none" xmlns="http://www.w3.org/2000/svg">
<g clip-path="url(#clip0_1_21)">
<path d="M15.4 27.4C22.0274 27.4 27.4 22.0274 27.4 15.4C27.4 8.77258 22.0274 3.39999 15.4 3.39999C8.77258 3.39999 3.39999 8.77258 3.39999 15.4C3.39999 22.0274 8.77258 27.4 15.4 27.4Z" stroke="white" stroke-width="2" stroke-miterlimit="10" stroke-linecap="round" stroke-linejoin="round"/>
<path fill-rule="evenodd" clip-rule="evenodd" d="M16.4457 17.6857C18.1468 17.3175 19.4 16.0774 19.4 14.6C19.4 14.0773 19.2402 13.5854 18.9624 13.1497C19.1706 11.3183 18.3712 9.39999 18.3712 9.39999C17.6194 9.88559 16.9324 11.1114 16.6917 11.5738C16.286 11.463 15.8526 11.4 15.4 11.4C14.9474 11.4 14.514 11.463 14.1083 11.5738C13.8676 11.1114 13.1807 9.88559 12.4289 9.39999C12.4289 9.39999 11.6294 11.3183 11.8376 13.1497C11.5598 13.5854 11.4 14.0773 11.4 14.6C11.4 16.0774 12.6532 17.3175 14.3543 17.6857C12.6532 18.6064 11.4 21.7065 11.4 25.4C11.4 25.8554 11.419 26.302 11.4556 26.7367C12.691 27.1664 14.0182 27.4 15.4 27.4C16.7818 27.4 18.109 27.1664 19.3444 26.7367C19.381 26.302 19.4 25.8554 19.4 25.4C19.4 21.7065 18.1468 18.6064 16.4457 17.6857Z" stroke="white" stroke-width="2" stroke-miterlimit="10" stroke-linecap="round" stroke-linejoin="round"/>
</g>
<defs>
<clipPath id="clip0_1_21">
<rect width="30" height="30" fill="white"/>
</clipPath>
</defs>
</svg>
